<?xml version="1.0" encoding="utf-8"?>
<svg version="1.1" id="Layer_1" xmlns="http://www.w3.org/2000/svg" xmlns:xlink="http://www.w3.org/1999/xlink"
	 width="240" height="74" viewBox="0 0 240 74" style="enable-background:new 0 0 240 74;" xml:space="preserve">
<style type="text/css">
	.st0{fill:none;}
	.st1{fill-rule:evenodd;clip-rule:evenodd;fill:#FFD666;}
	.st2{fill:#FFD666;}
</style>
<rect id="backgroundrect" class="st0" width="240" height="74"/>
<g>
	<path id="svg_1" class="st1" d="M105.5,23.3c-2.3,0-5.1,0.5-8.1,4v-9.8c0-2.5-2-4.5-4.5-4.5c-2.5,0-4.5,2-4.5,4.5v31.8
		c0,2.5,2,4.5,4.5,4.5c2.5,0,4.5-2,4.5-4.5V37c0-3.6,1.7-5.5,4.7-5.5c3,0,4.6,1.9,4.6,5.5v12.4c0,2.5,2,4.5,4.5,4.5
		c2.5,0,4.5-2,4.5-4.5V34.4C115.7,27.5,111.9,23.3,105.5,23.3z M131.1,23.6c-3.6,0-6.5,0.5-9.3,1.5c-1.5,0.5-2.4,2-2.4,3.5
		c0,2.1,1.7,3.7,3.8,3.7c0.4,0,0.8-0.1,1.3-0.2c1.7-0.5,3.5-0.8,5.5-0.8c4.8,0,5.8,2.7,5.8,4.9c-1.7-0.5-3.8-1-6.7-1
		c-7.6,0-12,3.5-12,9.6v0.1c0,5.5,4.1,9.2,10.3,9.2c3.5,0,6.2-1.1,8.4-3.2c0.4,1.6,1.9,3,4.2,3c2.4,0,4.4-1.9,4.4-4.3V36.4
		c0-4.1-1.1-7.3-3.2-9.5C138.9,24.7,135.5,23.6,131.1,23.6z M129.8,47.7c-2.5,0-4.1-1.2-4.1-3.1v-0.1c0-2.3,1.9-3.6,5.3-3.6
		c1.7,0,3.4,0.3,4.9,1V43C135.9,45.7,133.4,47.7,129.8,47.7z M156.3,27.4c2.3-2.7,5.1-4.1,8.7-4.1c6.7,0,13.5,5.3,13.5,15.3v0.1
		c0,4.6-1.4,8.6-4.1,11.4c-2.5,2.6-5.8,4-9.4,4c-3.5,0-6.2-1.2-8.6-3.7V58c0,2.5-2,4.5-4.5,4.5c-2.5,0-4.5-2-4.5-4.5V28
		c0-2.5,2-4.5,4.5-4.5C154.1,23.6,156,25.2,156.3,27.4z M169.6,38.6c0-4.3-2.9-7.6-6.7-7.6c-3.8,0-6.6,3.2-6.6,7.6v0.1
		c0,4.4,2.8,7.6,6.6,7.6c3.9,0,6.7-3.2,6.7-7.6V38.6z M198.1,23.3c-3.5,0-6.4,1.3-8.7,4.1c-0.3-2.2-2.2-3.8-4.4-3.8
		c-2.5,0-4.5,2-4.5,4.5v30c0,2.5,2,4.5,4.5,4.5c2.5,0,4.5-2,4.5-4.5v-7.7c2.4,2.5,5.2,3.7,8.6,3.7c3.6,0,6.9-1.4,9.4-4
		c2.7-2.8,4.1-6.7,4.1-11.4v-0.1C211.6,28.6,204.8,23.3,198.1,23.3z M196,31c3.8,0,6.7,3.3,6.7,7.6v0.1c0,4.4-2.8,7.6-6.7,7.6
		c-3.8,0-6.6-3.2-6.6-7.6v-0.1C189.3,34.2,192.1,31,196,31z M231.5,26.9c0.8-2.2,2.3-3.4,4.3-3.4c2.4,0,4.2,1.8,4.2,4.1
		c0,0.7-0.2,1.6-0.4,2.1L229.5,54c-2.5,6.1-5.2,8.3-10.1,8.3c-1.7,0-3.1-0.2-4.6-0.8c-1.1-0.4-2.8-1.4-2.8-3.7
		c0-2.3,1.8-3.7,3.6-3.7c0.7,0,1.1,0.1,1.5,0.2c0.7,0.2,1.1,0.3,1.6,0.3c1.3,0,1.9-0.2,2.6-1.5l0.2-0.5l-9.8-22.7
		c-0.2-0.6-0.5-1.4-0.5-2c0-2.5,1.9-4.3,4.4-4.3c2.1,0,3.5,1.1,4.3,3.3l5.9,15.9L231.5,26.9z"/>
	<path class="st2" d="M45.1,0H18.9C8.4,0,0,8.4,0,18.8v26.1c0,10.4,8.4,18.8,18.8,18.8h1.9l9.7,9.6l0,0l0.2,0.2
		C31,73.8,31.4,74,32,74c0.6,0,1.1-0.2,1.5-0.6l9.7-9.7h1.9c10.4,0,18.9-8.4,18.9-18.8V18.8C64,8.4,55.5,0,45.1,0z M38.2,21.6
		c0-3.1,2.5-5.6,5.6-5.6c3.1,0,5.6,2.5,5.6,5.6v5.6H38.2V21.6z M14.6,21.6c0-3.1,2.5-5.6,5.6-5.6c3.1,0,5.6,2.5,5.6,5.6v5.6H14.6
		V21.6z M50.9,39.8c-4.2,5.9-11.1,9.8-18.9,9.8c-7.8,0-14.7-3.9-18.9-9.8c-1.1-1.5,0-3.6,1.8-3.6h34.2C50.9,36.2,52,38.3,50.9,39.8z
		"/>
</g>
</svg>
